# xmcd CD database file
#
# Track frame offsets:
#	150
#	25047
#	42865
#	62200
#	86522
#	109677
#	126555
#	150997
#	163980
#	185382
#	210207
#	228617
#
# Disc length: 3195 seconds
#
# Revision: 0
# Processed by: cddbd v1.4PL0 Copyright (c) Steve Scherf et al.
# Submitted via: CDex 1.50Beta7
#
DISCID=980c790c
DTITLE=Dave Eggar - Angelic Embrace
DYEAR=2002
DGENRE=New Age
TTITLE0=Angel
TTITLE1=Petite Reverie
TTITLE2=Space
TTITLE3=Grey Dawn
TTITLE4=Chasing Dragons
TTITLE5=Wave
TTITLE6=Spiral Garden
TTITLE7=Safer Winds
TTITLE8=Hymne 9-11
TTITLE9=The Embrace
TTITLE10=Nocturne
TTITLE11=Dark Passage
EXTD=YEAR: 2002
EXTT0=
EXTT1=
EXTT2=
EXTT3=
EXTT4=
EXTT5=
EXTT6=
EXTT7=
EXTT8=
EXTT9=
EXTT10=
EXTT11=
PLAYORDER=
